<svg xmlns="http://www.w3.org/2000/svg" xmlns:xlink="http://www.w3.org/1999/xlink" width="500" zoomAndPan="magnify" viewBox="0 0 375 374.999991" height="500" preserveAspectRatio="xMidYMid meet" version="1.0"><defs><g/><clipPath id="77d8e40196"><path d="M 152.507812 118.394531 L 222.257812 118.394531 L 222.257812 194.683594 L 152.507812 194.683594 Z M 152.507812 118.394531 " clip-rule="nonzero"/></clipPath><clipPath id="01cf9d2e50"><path d="M 182.1875 138.765625 L 182.1875 143.292969 L 186.71875 143.292969 L 186.71875 138.765625 Z M 188.257812 138.765625 L 188.257812 143.292969 L 192.789062 143.292969 L 192.789062 138.765625 Z M 182.1875 144.695312 L 182.1875 149.222656 L 186.71875 149.222656 L 186.71875 144.695312 Z M 188.257812 144.695312 L 188.257812 149.222656 L 192.789062 149.222656 L 192.789062 144.695312 Z M 187.488281 125.753906 L 215.90625 146.523438 L 215.90625 187.964844 L 202.007812 187.964844 L 202.007812 159.472656 L 195.859375 159.472656 L 195.859375 174.042969 L 179.117188 174.042969 L 179.117188 159.472656 L 172.976562 159.472656 L 172.976562 187.964844 L 159.078125 187.964844 L 159.078125 146.523438 Z M 187.488281 118.394531 C 186.808594 118.394531 186.128906 118.605469 185.546875 119.023438 L 153.847656 142.195312 C 153.046875 142.792969 152.546875 143.714844 152.507812 144.703125 L 152.507812 191.394531 C 152.589844 193.144531 154.027344 194.535156 155.789062 194.535156 L 179.117188 194.535156 L 179.117188 179.773438 L 195.859375 179.773438 L 195.859375 194.535156 L 219.1875 194.535156 C 220.589844 194.535156 221.777344 193.664062 222.257812 192.425781 L 222.257812 143.675781 C 222.039062 143.09375 221.648438 142.574219 221.128906 142.195312 L 189.429688 119.023438 C 188.847656 118.605469 188.167969 118.394531 187.488281 118.394531 Z M 187.488281 118.394531 " clip-rule="nonzero"/></clipPath></defs><rect x="-37.5" width="450" fill="#ffffff" y="-37.499999" height="449.999989" fill-opacity="1"/><rect x="-37.5" width="450" fill="#075f9b" y="-37.499999" height="449.999989" fill-opacity="1"/><g clip-path="url(#77d8e40196)"><g clip-path="url(#01cf9d2e50)"><path fill="#ffffff" d="M 152.507812 118.394531 L 222.257812 118.394531 L 222.257812 194.410156 L 152.507812 194.410156 Z M 152.507812 118.394531 " fill-opacity="1" fill-rule="nonzero"/></g></g><g fill="#ffffff" fill-opacity="1"><g transform="translate(103.410744, 237.61497)"><g><path d="M 13.671875 0 L 5.671875 -20.890625 L 5.546875 -20.890625 C 5.691406 -19.234375 5.765625 -17.265625 5.765625 -14.984375 L 5.765625 0 L 3.234375 0 L 3.234375 -23.5625 L 7.359375 -23.5625 L 14.828125 -4.125 L 14.953125 -4.125 L 22.484375 -23.5625 L 26.578125 -23.5625 L 26.578125 0 L 23.828125 0 L 23.828125 -15.171875 C 23.828125 -16.921875 23.90625 -18.8125 24.0625 -20.84375 L 23.921875 -20.84375 L 15.875 0 Z M 13.671875 0 "/></g></g></g><g fill="#ffffff" fill-opacity="1"><g transform="translate(135.943199, 237.61497)"><g><path d="M 18.046875 0 L 15.109375 -7.5 L 5.671875 -7.5 L 2.765625 0 L 0 0 L 9.3125 -23.65625 L 11.625 -23.65625 L 20.890625 0 Z M 14.265625 -9.953125 L 11.515625 -17.25 C 11.160156 -18.175781 10.796875 -19.3125 10.421875 -20.65625 C 10.191406 -19.625 9.851562 -18.488281 9.40625 -17.25 L 6.640625 -9.953125 Z M 14.265625 -9.953125 "/></g></g></g><g fill="#ffffff" fill-opacity="1"><g transform="translate(159.56501, 237.61497)"><g><path d="M 21.640625 0 L 18.515625 0 L 5.640625 -19.765625 L 5.515625 -19.765625 C 5.679688 -17.453125 5.765625 -15.328125 5.765625 -13.390625 L 5.765625 0 L 3.234375 0 L 3.234375 -23.5625 L 6.328125 -23.5625 L 19.171875 -3.875 L 19.296875 -3.875 C 19.273438 -4.15625 19.226562 -5.082031 19.15625 -6.65625 C 19.082031 -8.238281 19.054688 -9.363281 19.078125 -10.03125 L 19.078125 -23.5625 L 21.640625 -23.5625 Z M 21.640625 0 "/></g></g></g><g fill="#ffffff" fill-opacity="1"><g transform="translate(187.182915, 237.61497)"><g><path d="M 18.046875 0 L 15.109375 -7.5 L 5.671875 -7.5 L 2.765625 0 L 0 0 L 9.3125 -23.65625 L 11.625 -23.65625 L 20.890625 0 Z M 14.265625 -9.953125 L 11.515625 -17.25 C 11.160156 -18.175781 10.796875 -19.3125 10.421875 -20.65625 C 10.191406 -19.625 9.851562 -18.488281 9.40625 -17.25 L 6.640625 -9.953125 Z M 14.265625 -9.953125 "/></g></g></g><g fill="#ffffff" fill-opacity="1"><g transform="translate(210.804726, 237.61497)"><g><path d="M 17.515625 0 L 1.328125 0 L 1.328125 -2.140625 L 13.828125 -21.09375 L 1.703125 -21.09375 L 1.703125 -23.5625 L 17.15625 -23.5625 L 17.15625 -21.421875 L 4.65625 -2.484375 L 17.515625 -2.484375 Z M 17.515625 0 "/></g></g></g><g fill="#ffffff" fill-opacity="1"><g transform="translate(232.380156, 237.61497)"><g><path d="M 16.375 0 L 3.234375 0 L 3.234375 -23.5625 L 16.375 -23.5625 L 16.375 -21.125 L 5.984375 -21.125 L 5.984375 -13.53125 L 15.75 -13.53125 L 15.75 -11.125 L 5.984375 -11.125 L 5.984375 -2.453125 L 16.375 -2.453125 Z M 16.375 0 "/></g></g></g><g fill="#ffffff" fill-opacity="1"><g transform="translate(253.472188, 237.61497)"><g><path d="M 3.234375 0 L 3.234375 -23.5625 L 5.984375 -23.5625 L 5.984375 -2.484375 L 16.375 -2.484375 L 16.375 0 Z M 3.234375 0 "/></g></g></g></svg>